# xmcd
#
# Track frame offsets:
#	150
#	11625
#	19600
#	32025
#	41800
#	53850
#	65100
#	73275
#	85800
#	95925
#	104700
#	116850
#
# Disc length: 1690 seconds
#
# Revision: 1
# Processed by: cddbd v1.5.2PL0 Copyright (c) Steve Scherf et al.
# Submitted via: EasyCDDAExtractor 7.0.3.1
#
DISCID=b406980c
DTITLE=Lulu Belle and Scotty - Down Memory Lane
DYEAR=2005
DGENRE=Country
TTITLE0=My Best To You
TTITLE1=Second Fiddle
TTITLE2=Tying the Leaves
TTITLE3=The Devil's Tramping Ground
TTITLE4=The Sinking of the Titanic
TTITLE5=Did You Ever Go Sailing
TTITLE6=Saturday Night Supper on the Table
TTITLE7=Lueller
TTITLE8=Pretty Red Shoes
TTITLE9=Wonderful Lies
TTITLE10=Prisoner's Dream
TTITLE11=Company's Comin'
EXTD=
EXTT0=
EXTT1=
EXTT2=
EXTT3=
EXTT4=
EXTT5=
EXTT6=
EXTT7=
EXTT8=
EXTT9=
EXTT10=
EXTT11=
PLAYORDER=
